<svg width="46" height="43" viewBox="0 0 46 43" fill="none" xmlns="http://www.w3.org/2000/svg">
<g id="&#240;&#159;&#166;&#134; emoji &#34;cloud with rain&#34;">
<path id="Vector" d="M35.0571 5.15457C34.0242 5.15457 33.0288 5.30177 32.091 5.57498C30.9805 2.58972 27.9681 0.444096 24.4148 0.444096C20.6036 0.444096 17.4134 2.91238 16.5282 6.23916C15.5841 5.56791 14.4222 5.15457 13.1464 5.15457C10.0351 5.15457 7.51224 7.52747 7.51224 10.4539C7.51224 11.1651 7.66624 11.8411 7.93668 12.4605C7.39955 12.3204 6.8449 12.2203 6.2602 12.2203C2.80206 12.2203 0 14.8558 0 18.1084C0 21.361 2.80206 23.9965 6.2602 23.9965H35.0571C40.5886 23.9965 45.0734 19.7794 45.0734 14.5755C45.0734 9.3728 40.5886 5.15457 35.0571 5.15457Z" fill="#E1E8ED"/>
<path id="Vector_2" d="M15.0232 29.8386L14.8817 25.81L11.2884 27.8214C10.4896 28.2277 9.95873 29.0273 9.99128 29.9399C10.0376 31.2388 11.2007 32.2669 12.5905 32.2398C13.979 32.2127 15.0696 31.1364 15.0232 29.8386ZM12.5454 38.6237L12.404 34.595L8.81061 36.6064C8.0118 37.0127 7.48094 37.8123 7.51349 38.7249C7.55982 40.0239 8.72296 41.0519 10.1127 41.0248C11.5025 40.9977 12.5918 39.9214 12.5454 38.6237ZM6.28524 33.3715L6.14376 29.3429L2.55041 31.3542C1.75161 31.7605 1.22074 32.5601 1.25329 33.4728C1.29962 34.7705 2.46276 35.7986 3.85253 35.7727C5.24229 35.7456 6.33157 34.6692 6.28524 33.3715ZM28.822 29.8386L28.6805 25.81L25.0884 27.8214C24.2883 28.2277 23.7587 29.0273 23.7913 29.9399C23.8376 31.2388 25.0007 32.2669 26.3905 32.2398C27.779 32.2127 28.8683 31.1364 28.822 29.8386ZM21.2834 34.5491L21.1419 30.5205L17.5498 32.5318C16.7498 32.9381 16.2202 33.7377 16.2527 34.6504C16.2991 35.9493 17.4622 36.9774 18.852 36.9503C20.2405 36.9232 21.3297 35.8468 21.2834 34.5491ZM27.5699 39.8013L27.4272 35.7727L23.8351 37.784C23.035 38.1903 22.5054 38.9899 22.538 39.9026C22.5843 41.2015 23.7474 42.2295 25.1372 42.2025C26.527 42.1754 27.6162 41.099 27.5699 39.8013ZM36.3079 33.3715L36.1664 29.3429L32.5743 31.3542C31.7743 31.7605 31.2447 32.5601 31.2772 33.4728C31.3235 34.7717 32.4867 35.7997 33.8764 35.7727C35.2649 35.7456 36.3542 34.6692 36.3079 33.3715Z" fill="#5DADEC"/>
</g>
</svg>
