<svg width="17" height="17" viewBox="0 0 17 17" fill="none" xmlns="http://www.w3.org/2000/svg">
<path d="M16.1103 8.05517C16.1103 12.5039 12.5039 16.1103 8.05517 16.1103C3.60693 16.1103 0 12.5039 0 8.05517C0 3.60693 3.60693 0 8.05517 0C12.5039 0 16.1103 3.60693 16.1103 8.05517Z" fill="#FFCC4D"/>
<path d="M3.13301 6.71264C2.98846 6.71264 2.8466 6.64283 2.76023 6.5135C2.62329 6.30765 2.67879 6.02975 2.88419 5.89281C2.94371 5.85343 4.36142 4.92261 6.26513 4.92261C6.51215 4.92261 6.71264 5.12309 6.71264 5.37012C6.71264 5.61714 6.51215 5.81763 6.26513 5.81763C4.62948 5.81763 3.39301 6.62941 3.38093 6.63746C3.3044 6.68848 3.21803 6.71264 3.13301 6.71264ZM12.9773 6.71264C12.8927 6.71264 12.8064 6.68848 12.7303 6.63791C12.7178 6.62986 11.4688 5.81763 9.8452 5.81763C9.59773 5.81763 9.39769 5.61714 9.39769 5.37012C9.39769 5.12309 9.59773 4.92261 9.8452 4.92261C11.7489 4.92261 13.1666 5.85343 13.2261 5.89281C13.432 6.02975 13.4875 6.30765 13.3501 6.5135C13.2642 6.64283 13.1219 6.71264 12.9773 6.71264Z" fill="#664500"/>
<path d="M12.0828 9.88596L16.1103 8.0552C16.1103 7.75984 16.092 7.46941 16.0616 7.18256L12.0828 8.99094V8.50271C12.0828 8.00866 11.6818 7.60769 11.1877 7.60769H4.9226C4.42855 7.60769 4.02758 8.00866 4.02758 8.50271V8.99094L0.049226 7.18256C0.0183479 7.46941 0 7.75984 0 8.0552L4.02758 9.88596V11.9203L0.692297 11.314C0.844898 11.6585 1.0239 11.9884 1.2217 12.3052L4.02758 12.8154V13.4253C4.02758 13.9194 4.42855 14.3203 4.9226 14.3203H11.1877C11.6818 14.3203 12.0828 13.9194 12.0828 13.4253V12.8154L14.8891 12.3047C15.0864 11.9879 15.2654 11.6581 15.418 11.3135L12.0828 11.9203V9.88596Z" fill="#F5F8FA"/>
</svg>
