<svg width="43" height="43" viewBox="0 0 43 43" fill="none" xmlns="http://www.w3.org/2000/svg">
<path d="M19.4205 2.7952C19.4205 2.7952 19.4205 0.449814 21.7659 0.449814C24.1113 0.449814 24.1113 2.7952 24.1113 2.7952V5.14058C24.1113 5.14058 24.1113 7.48596 21.7659 7.48596C19.4205 7.48596 19.4205 5.14058 19.4205 5.14058V2.7952ZM40.5289 19.2129C40.5289 19.2129 42.8743 19.2129 42.8743 21.5583C42.8743 23.9036 40.5289 23.9036 40.5289 23.9036H38.1836C38.1836 23.9036 35.8382 23.9036 35.8382 21.5583C35.8382 19.2129 38.1836 19.2129 38.1836 19.2129H40.5289ZM5.3482 19.2129C5.3482 19.2129 7.69358 19.2129 7.69358 21.5583C7.69358 23.9036 5.3482 23.9036 5.3482 23.9036H3.00282C3.00282 23.9036 0.657433 23.9036 0.657433 21.5583C0.657433 19.2129 3.00282 19.2129 3.00282 19.2129H5.3482ZM11.3536 9.00225C11.3536 9.00225 13.0117 10.6604 11.3536 12.3186C9.69537 13.9768 8.03718 12.3186 8.03718 12.3186L6.37782 10.6616C6.37782 10.6616 4.71964 9.00343 6.37782 7.34407C8.03718 5.68588 9.69536 7.34407 9.69536 7.34407L11.3536 9.00225ZM35.9801 33.6288C35.9801 33.6288 37.6383 35.287 35.9801 36.9451C34.3219 38.6033 32.6637 36.9451 32.6637 36.9451L31.0055 35.287C31.0055 35.287 29.3473 33.6288 31.0055 31.9706C32.6637 30.3124 34.3219 31.9706 34.3219 31.9706L35.9801 33.6288ZM35.4958 12.3186C35.4958 12.3186 33.8376 13.9768 32.1794 12.3186C30.5212 10.6604 32.1794 9.00225 32.1794 9.00225L33.8376 7.34407C33.8376 7.34407 35.4958 5.68588 37.1539 7.34407C38.8121 9.00225 37.1539 10.6604 37.1539 10.6604L35.4958 12.3186ZM10.8692 36.9451C10.8692 36.9451 9.21104 38.6033 7.55286 36.9451C5.89467 35.287 7.55286 33.6288 7.55286 33.6288L9.21104 31.9706C9.21104 31.9706 10.8692 30.3124 12.5274 31.9706C14.1856 33.6288 12.5274 35.287 12.5274 35.287L10.8692 36.9451ZM19.4205 37.9759C19.4205 37.9759 19.4205 35.6306 21.7659 35.6306C24.1113 35.6306 24.1113 37.9759 24.1113 37.9759V40.3213C24.1113 40.3213 24.1113 42.6667 21.7659 42.6667C19.4205 42.6667 19.4205 40.3213 19.4205 40.3213V37.9759Z" fill="#FFAC33"/>
<path d="M21.7659 33.2852C28.2425 33.2852 33.4928 28.0349 33.4928 21.5583C33.4928 15.0817 28.2425 9.83134 21.7659 9.83134C15.2893 9.83134 10.039 15.0817 10.039 21.5583C10.039 28.0349 15.2893 33.2852 21.7659 33.2852Z" fill="#FFAC33"/>
</svg>
