<svg width="17" height="17" viewBox="0 0 17 17" fill="none" xmlns="http://www.w3.org/2000/svg">
<path d="M15.4169 0.694058C14.4915 -0.231353 12.9918 -0.231353 12.0663 0.694058L11.4992 1.26219L12.8458 2.60932C13.0311 2.79459 13.0311 3.09453 12.8458 3.27933C12.7534 3.37173 12.6321 3.41817 12.5108 3.41817C12.3895 3.41817 12.2682 3.37173 12.1758 3.27933L10.8296 1.93268L9.82982 2.93343L11.176 4.27914C11.3613 4.46393 11.3613 4.76387 11.176 4.94915C11.0836 5.04154 10.9623 5.08798 10.841 5.08798C10.7197 5.08798 10.5984 5.04154 10.506 4.94915L9.16029 3.60391L8.15574 4.6094L9.50003 5.95416C9.6853 6.13943 9.6853 6.43937 9.50003 6.62417C9.40763 6.71657 9.28633 6.76301 9.16502 6.76301C9.04372 6.76301 8.92242 6.71657 8.83002 6.62417L7.48573 5.27989L6.48119 6.28585L7.825 7.62966C8.01027 7.81493 8.01027 8.1144 7.825 8.29967C7.7326 8.39207 7.6113 8.43851 7.49 8.43851C7.36869 8.43851 7.24739 8.39207 7.15499 8.29967L5.81165 6.95633L4.80711 7.9623L6.1495 9.30469C6.33477 9.48996 6.33477 9.78943 6.1495 9.9747C6.0571 10.0671 5.9358 10.1135 5.8145 10.1135C5.69319 10.1135 5.57189 10.0671 5.47949 9.9747L4.1371 8.63278L3.29319 9.47859C1.47222 9.49138 0 10.9702 0 12.7941C0 14.6259 1.48502 16.1109 3.31688 16.1109C5.13264 16.1109 6.60581 14.651 6.6314 12.8414L15.4169 4.04506C16.3418 3.11965 16.3418 1.61947 15.4169 0.694058Z" fill="#CCD6DD"/>
<path d="M14.1856 1.93881C13.8155 1.56874 13.2156 1.56874 12.8455 1.93881L3.81177 10.9726C3.17778 10.801 2.47412 10.956 1.97659 11.4535C1.23645 12.1937 1.23645 13.3939 1.97659 14.134C2.71673 14.8742 3.91697 14.8742 4.65711 14.134C5.14895 13.6422 5.30674 12.9485 5.14469 12.3202L14.1856 3.2793C14.5556 2.90923 14.5556 2.30888 14.1856 1.93881Z" fill="#DD2E44"/>
<path d="M5.81471 10.1135C5.93601 10.1135 6.05732 10.0671 6.14971 9.97465C6.33499 9.78938 6.33499 9.48991 6.14971 9.30464L4.80732 7.96225L4.13779 8.63274L5.48018 9.97465C5.5721 10.0671 5.69341 10.1135 5.81471 10.1135ZM7.49021 8.43846C7.61151 8.43846 7.73282 8.39202 7.82521 8.29963C8.01049 8.11435 8.01049 7.81489 7.82521 7.62962L6.4814 6.2858L5.81187 6.95629L7.1552 8.29963C7.2476 8.39202 7.36891 8.43846 7.49021 8.43846ZM9.16524 6.76296C9.28654 6.76296 9.40784 6.71653 9.50024 6.62413C9.68551 6.43933 9.68551 6.13939 9.50024 5.95412L8.15596 4.60936L7.48642 5.27984L8.8307 6.62413C8.92263 6.71653 9.04393 6.76296 9.16524 6.76296ZM10.8407 5.08746C10.962 5.08746 11.0833 5.04102 11.1757 4.94863C11.361 4.76335 11.361 4.46341 11.1757 4.27862L9.82956 2.93291L9.16002 3.60339L10.5057 4.94863C10.5981 5.0415 10.7194 5.08746 10.8407 5.08746ZM12.5101 3.41812C12.6314 3.41812 12.7527 3.37168 12.8451 3.27929C13.0304 3.09449 13.0304 2.79455 12.8451 2.60927L11.4984 1.26215L10.8289 1.93263L12.1751 3.27929C12.2679 3.37168 12.3888 3.41812 12.5101 3.41812Z" fill="#292F33"/>
</svg>
